<?xml version="1.0" standalone="no"?>
<!DOCTYPE svg PUBLIC "-//W3C//DTD SVG 20010904//EN"
 "http://www.w3.org/TR/2001/REC-SVG-20010904/DTD/svg10.dtd">
<svg version="1.0" xmlns="http://www.w3.org/2000/svg"
 width="400.000000pt" height="446.000000pt" viewBox="0 0 400.000000 446.000000"
 preserveAspectRatio="xMidYMid meet">

<g transform="translate(0.000000,446.000000) scale(0.100000,-0.100000)"
fill="#000000" stroke="none">
<path d="M0 2230 l0 -2230 2000 0 2000 0 0 2230 0 2230 -2000 0 -2000 0 0
-2230z m2010 0 l0 -2140 -955 0 -955 0 0 2140 0 2140 955 0 955 0 0 -2140z
m734 1967 c176 -606 326 -1628 366 -2497 17 -369 8 -1211 -16 -1427 l-5 -53
-68 0 c-43 0 -72 5 -78 13 -13 16 -72 230 -117 422 -94 405 -192 994 -242
1465 -10 91 -20 158 -21 150 -2 -8 -36 -447 -78 -975 -41 -528 -78 -988 -81
-1023 l-6 -62 -89 0 c-68 0 -89 3 -89 14 0 7 81 907 180 2000 99 1093 180
1996 180 2007 0 17 7 19 74 19 l75 0 15 -53z m655 -59 c156 -568 293 -1485
341 -2273 25 -419 22 -1195 -6 -1562 l-7 -83 -67 0 c-43 0 -71 5 -78 13 -40
47 -180 666 -256 1132 -99 599 -137 982 -157 1569 -16 461 -4 813 37 1149 9
71 14 137 11 148 -5 17 1 19 73 19 l78 0 31 -112z"/>
<path d="M691 4188 c-54 -166 -137 -556 -200 -939 -105 -637 -155 -1150 -170
-1761 -8 -314 0 -879 17 -1153 l7 -120 71 -3 c49 -2 74 1 81 10 43 54 195 737
273 1228 102 638 137 1037 147 1675 6 404 -2 634 -34 895 -8 74 -16 156 -16
183 l-1 47 -77 0 -77 0 -21 -62z m30 -1395 c-24 -615 -74 -1072 -172 -1568
l-49 -250 5 325 c12 823 82 1569 188 2005 l21 90 9 -155 c6 -100 5 -258 -2
-447z"/>
<path d="M1339 4223 c-47 -121 -147 -587 -215 -999 -139 -847 -191 -1614 -165
-2444 6 -217 14 -434 18 -482 l6 -88 74 0 74 0 15 36 c23 55 118 437 162 654
71 342 140 781 182 1139 11 96 21 175 23 177 1 2 38 -448 81 -999 43 -551 81
-1005 83 -1009 2 -5 44 -8 94 -8 l89 0 0 33 c0 19 -81 926 -180 2017 -99 1090
-177 1987 -174 1991 3 5 -31 9 -76 9 -79 0 -81 -1 -91 -27z m21 -1171 c0 -465
-34 -948 -101 -1417 -22 -154 -117 -667 -126 -675 -3 -3 -2 96 1 220 23 805
69 1427 131 1800 36 214 78 401 87 387 4 -7 8 -148 8 -315z"/>
<path d="M2717 3335 c-10 -114 -8 -493 3 -695 33 -591 81 -987 184 -1510 l45
-225 0 150 c2 357 -46 1241 -85 1580 -22 196 -62 444 -95 599 -42 189 -44 195
-52 101z"/>
<path d="M3355 3346 c-11 -103 1 -763 19 -986 38 -463 75 -749 151 -1146 31
-159 58 -293 60 -299 7 -14 -3 460 -16 730 -33 739 -75 1162 -155 1545 -49
238 -50 240 -59 156z"/>
</g>
</svg>
